<mxfile host="app.diagrams.net" modified="2023-10-17T16:28:48.600Z" agent="Mozilla/5.0 (Windows NT 10.0; Win64; x64) AppleWebKit/537.36 (KHTML, like Gecko) Chrome/118.0.0.0 Safari/537.36 Edg/118.0.2088.46" version="22.0.4" etag="mH1NoztRhjb6guPyrdfo" type="github">
  <diagram name="Page-1" id="DBZLRl6Jiu3nV1U95OIz">
    <mxGraphModel>
      <root>
        <mxCell id="0" />
        <mxCell id="1" parent="0" />
      </root>
    </mxGraphModel>
  </diagram>
</mxfile>
